# xmcd
#
# Track frame offsets:
#	150
#	15182
#	28904
#	44894
#	58128
#	73877
#	95378
#	106053
#	115429
#	129382
#	139203
#	153933
#	168730
#	178663
#	192411
#	204601
#	216314
#	227331
#	238491
#	254162
#	268806
#	281562
#	298220
#	316782
#	336742
#
# Disc length: 4785 seconds
#
# Revision: 0
# Processed by: cddbd v1.5.2PL0 Copyright (c) Steve Scherf et al.
# Submitted via: audiograbber 1.83.01
#
DISCID=9912af19
DTITLE=Alex Harvey - The Last of the Idols Th Highlights
DYEAR=1900
DGENRE=Rock
TTITLE0=Framed
TTITLE1=let the good times roll
TTITLE2=Teensville USA
TTITLE3=House of the Rising sun
TTITLE4=Reeling and Rocking
TTITLE5=Shout
TTITLE6=Long long Gone
TTITLE7=Shakin' all over
TTITLE8=Parchman Farm
TTITLE9=Elevator Rock
TTITLE10=Trouble in Mind
TTITLE11=I Learned About Woman
TTITLE12=Big Rock Candy Mountain
TTITLE13=Nobody Knows You When You're Down and Out
TTITLE14=Agent 00 Soul
TTITLE15=Work Song
TTITLE16=The Sunday Song
TTITLE17=Birthday
TTITLE18=Midnight Moses
TTITLE19=Hammer Song
TTITLE20=Roman Wall Blues
TTITLE21=Broken Hearted Fairytail
TTITLE22=Hammer Song
TTITLE23=Midnight Moses
TTITLE24=Framed
EXTD=
EXTT0=
EXTT1=
EXTT2=
EXTT3=
EXTT4=
EXTT5=
EXTT6=
EXTT7=
EXTT8=
EXTT9=
EXTT10=
EXTT11=
EXTT12=
EXTT13=
EXTT14=
EXTT15=
EXTT16=
EXTT17=
EXTT18=
EXTT19=
EXTT20=
EXTT21=
EXTT22=
EXTT23=
EXTT24=
PLAYORDER=
